
<svg width="20px" height="21px" viewBox="0 0 20 21" version="1.1" xmlns="http://www.w3.org/2000/svg" xmlns:xlink="http://www.w3.org/1999/xlink">
    <g id="PC-version" stroke="none" stroke-width="1" fill="none" fill-rule="evenodd">
        <g id="Homepage" transform="translate(-194.000000, -44.000000)" fill-rule="nonzero">
            <g id="Group-3" transform="translate(80.000000, 36.000000)">
                <g id="La-liga" transform="translate(104.000000, 0.000000)">
                    <g id="LaLiga-2" transform="translate(10.000000, 8.000000)">
                        <g id="LaLiga" transform="translate(0.000000, 0.400000)">
                            <path d="M7.25180723,8.07640191 C7.65614458,7.50430622 8.2746988,7.07184689 8.97253012,6.88604785 C8.84843373,6.96757895 8.74457831,7.07161722 8.64144578,7.17496651 C9.00048193,7.13064115 9.37349398,7.17060287 9.70626506,7.31000957 C9.74915663,7.61201914 9.77228916,7.91678469 9.8226506,8.21764593 C9.86385542,7.9154067 9.89518072,7.61201914 9.93445783,7.30955024 C10.2592771,7.17542584 10.6238554,7.12811483 10.9742169,7.17542584 L10.9978313,7.19333971 C10.9985542,7.18805742 11,7.17772249 11.0007229,7.17266986 C10.8925301,7.07391388 10.7920482,6.96643062 10.666988,6.88627751 C11.3638554,7.07253589 11.9824096,7.50361722 12.3862651,8.07548325 C12.2677108,7.98866986 12.1322892,7.92780861 11.9983133,7.8667177 C12.1525301,8.17607656 12.2306024,8.5242488 12.193253,8.86667943 C11.9009639,8.99621053 11.6038554,9.11655502 11.3149398,9.25297608 C11.6306024,9.19900478 11.9438554,9.13263158 12.2583133,9.07383732 C12.5043373,9.33152153 12.6580723,9.65971292 12.7279518,9.99961722 C12.7971084,9.87927273 12.8655422,9.7577799 12.9086747,9.62641148 C12.933012,10.3004785 12.7016867,10.9791388 12.266747,11.5108134 C12.3062651,11.3831196 12.3272289,11.2515215 12.3457831,11.1201531 C12.0838554,11.3557895 11.759759,11.5321722 11.406506,11.6065837 C11.1838554,11.3799043 10.9698795,11.1451866 10.7419277,10.9233301 C10.8954217,11.1957129 11.060241,11.4621244 11.2183133,11.7319809 C11.0351807,12.0328421 10.7563855,12.2751388 10.4366265,12.4402679 C10.5737349,12.4639234 10.7118072,12.4852823 10.8515663,12.4891866 C10.1896386,12.7140287 9.44698795,12.7133397 8.78506024,12.4884976 C8.92578313,12.4857416 9.06481928,12.4639234 9.20313253,12.4402679 C8.88337349,12.2751388 8.60457831,12.0328421 8.42144578,11.7317512 C8.57903614,11.4621244 8.74481928,11.1964019 8.89686747,10.9240191 C8.66843373,11.1458756 8.45590361,11.3824306 8.23036145,11.6070431 C7.87903614,11.5301053 7.5546988,11.3564785 7.29445783,11.1199234 C7.31253012,11.2524402 7.33301205,11.3849569 7.37349398,11.5133397 C6.93831325,10.9805167 6.70578313,10.3016268 6.72987952,9.62641148 C6.77493976,9.7584689 6.84361446,9.88088038 6.91301205,10.0023732 C6.97855422,9.66040191 7.13638554,9.33198086 7.38168675,9.07314833 C7.69638554,9.13171292 8.00963855,9.19808612 8.3253012,9.25228708 C8.03662651,9.11517703 7.73879518,8.99552153 7.44650602,8.8655311 C7.40963855,8.52378947 7.48698795,8.17584689 7.64144578,7.86694737 C7.50650602,7.92757895 7.37084337,7.98958852 7.25180723,8.07640191 M9.81975904,8.35452632 C9.36771084,8.66801914 8.91493976,8.98082297 8.46240964,9.29362679 C8.6346988,9.8011866 8.80843373,10.3080574 8.98144578,10.8153876 C9.54144578,10.8142392 10.1014458,10.8172249 10.6614458,10.8137799 C10.8313253,10.3059904 11.0086747,9.80049761 11.1780723,9.29247847 C10.7243373,8.98105263 10.273012,8.66641148 9.81975904,8.35452632 L9.81975904,8.35452632 Z" id="Shape" fill="#FFFFFF"></path>
                            <path d="M8.96915663,0 L9.03566265,0 C9.07277108,0.0307751196 9.10771084,0.0666028708 9.1113253,0.116210526 C9.35590361,1.37064115 9.60240964,2.62484211 9.84626506,3.87950239 C9.86771084,3.94266029 9.82963855,4.01776077 9.7573494,4.02625837 C9.26072289,4.11123445 8.77686747,4.26878469 8.3346988,4.50143541 C7.59783133,4.88566507 6.97228916,5.46442105 6.55662651,6.16076555 C6.53036145,6.20486124 6.49542169,6.25561722 6.43493976,6.25382836 C6.35445783,6.23862201 6.2886747,6.18832536 6.21831325,6.15180861 C5.10578313,5.53561722 3.99301205,4.92011483 2.88,4.30461244 C2.83301205,4.28003828 2.78578313,4.23594258 2.79951807,4.17967464 C2.82698795,4.09998086 2.88216867,4.032689 2.92457831,3.9603445 C3.79012048,2.59039234 5.07590361,1.46870813 6.57807229,0.758354067 C7.33228916,0.399157895 8.14072289,0.147444976 8.96915663,0 Z" id="Path" fill="#951B80"></path>
                            <path d="M11.2089157,0.948287081 C12.4356627,0.917741627 13.6681928,1.13408612 14.8045783,1.57527273 C15.6792771,1.91517703 16.4973494,2.38759809 17.2173494,2.97048804 C17.2575904,3.00401914 17.3019277,3.03433493 17.3359036,3.07429665 C17.366988,3.12275598 17.3486747,3.18453589 17.3079518,3.22220096 C16.4313253,4.18564593 15.5546988,5.14909091 14.6785542,6.11276555 C14.6513253,6.14055502 14.6204819,6.1729378 14.5771084,6.17178947 C14.5219277,6.17523445 14.4838554,6.13136842 14.4445783,6.10197129 C13.4510843,5.27724402 12.0710843,4.89622967 10.7689157,5.08845933 C10.7195181,5.09305263 10.6624096,5.11119617 10.6195181,5.07835407 C10.5838554,5.05860287 10.5737349,5.01772249 10.5684337,4.98166507 C10.3807229,3.77362679 10.193494,2.56535885 10.0057831,1.35732057 C9.99614458,1.28773206 9.98,1.21860287 9.97681099,1.14832536 C9.97493976,1.09573206 10.0226506,1.05209569 10.0756627,1.04635407 C10.4506024,0.989626794 10.8293976,0.958392344 11.2089157,0.948287081 Z" id="Path" fill="#E40613"></path>
                            <path d="M1.31084337,4.27980861 C1.35614458,4.25385646 1.40843373,4.26832536 1.45108434,4.29152153 C2.63686747,4.89852632 3.82433735,5.50300478 5.00987952,6.11069856 C5.0853012,6.14354067 5.08457831,6.23678469 5.03927711,6.2932823 C4.40168675,7.39866029 4.30795181,8.77228708 4.79108434,9.94679426 C4.80722892,9.99617225 4.84337349,10.0501435 4.81373494,10.1013589 C4.78554217,10.1539522 4.71759036,10.1640574 4.6660241,10.1865646 C3.4339759,10.6369378 2.20313253,11.090067 0.971325301,11.5408995 C0.919518072,11.5634067 0.849879518,11.5597321 0.817349398,11.5098947 C0.776626506,11.4350239 0.751566265,11.3532632 0.719277108,11.2747177 C0.063373494,9.57014354 0.0118072289,7.66346411 0.565542169,5.92696651 C0.73686747,5.38357895 0.967228916,4.85741627 1.24795181,4.35720574 C1.26506024,4.3291866 1.28072289,4.29749282 1.31084337,4.27980861 Z" id="Path" fill="#01509F"></path>
                            <path d="M17.0460241,4.49087081 C17.0920482,4.464 17.1489157,4.48421053 17.1843373,4.51797129 C18.2233735,5.44007656 19.0187952,6.60700478 19.4908434,7.88256459 C19.8050602,8.72497608 19.9720482,9.61492823 20,10.5080957 L20,10.9639809 C19.9939759,11.0436746 19.9954217,11.1245167 19.9790361,11.2032919 C19.9580723,11.2613971 19.8884337,11.2754067 19.8315663,11.2698947 C18.4893976,11.2065072 17.146747,11.1472536 15.8045783,11.0827177 C15.7219277,11.085244 15.6778313,11.0030239 15.693012,10.9332057 C15.7706024,9.67831579 15.239759,8.40390431 14.2804819,7.54151196 C14.2424096,7.50476555 14.1944578,7.47100478 14.1787952,7.41933014 C14.1696386,7.37087081 14.2053012,7.33182775 14.2368675,7.29875598 C15.1250602,6.40788517 16.0127711,5.51632536 16.9004819,4.62499522 C16.9477108,4.57929187 16.9898795,4.52715789 17.0460241,4.49087081 L17.0460241,4.49087081 Z" id="Path" fill="#F28800"></path>
                            <g id="Group" transform="translate(6.457831, 6.499522)" fill="#1D1D1B">
                                <path d="M2.9313253,0.0422583732 C3.89301205,-0.0806124402 4.9026506,0.219789474 5.61759036,0.845397129 C6.24722892,1.38419139 6.64891566,2.15747368 6.71204819,2.9622201 C6.78337349,3.77178947 6.51228916,4.60225837 5.97180723,5.23039234 C5.42939759,5.87138756 4.61951807,6.29925359 3.76072289,6.39295694 C2.81975904,6.50457416 1.83638554,6.21244019 1.13108434,5.60796172 C0.493253012,5.07330144 0.0826506024,4.30001914 0.0130120482,3.49274641 C-0.0542168675,2.7794067 0.141204819,2.04677512 0.558554217,1.45102392 C1.08722892,0.684172249 1.97518072,0.153875598 2.9313253,0.0422583732 M0.793975904,1.57688038 C0.913012048,1.49006699 1.0486747,1.42805742 1.18361446,1.36742584 C1.02915663,1.67632536 0.951807229,2.02426794 0.988674699,2.36600957 C1.28096386,2.496 1.57879518,2.6156555 1.86746988,2.75276555 C1.55180723,2.69856459 1.23855422,2.63219139 0.923855422,2.57362679 C0.678554217,2.83245933 0.520722892,3.16088038 0.455180723,3.50285167 C0.385783133,3.38135885 0.317108434,3.25894737 0.272048193,3.12688995 C0.247951807,3.80210526 0.480481928,4.48099522 0.915662651,5.01381818 C0.875180723,4.88543541 0.854698795,4.75291866 0.836626506,4.62040191 C1.09686747,4.85695694 1.42120482,5.03058373 1.77253012,5.10752153 C1.99807229,4.88290909 2.21060241,4.64635407 2.43903614,4.42449761 C2.28698795,4.69688038 2.12120482,4.96260287 1.96361446,5.23222967 C2.14674699,5.53332057 2.42554217,5.77561722 2.7453012,5.94074641 C2.60698795,5.96440191 2.46795181,5.9862201 2.32722892,5.98897608 C2.98915663,6.21381818 3.73180723,6.21450718 4.39373494,5.98966507 C4.2539759,5.98576077 4.11590361,5.96440191 3.97879518,5.94074641 C4.29855422,5.77561722 4.5773494,5.53332057 4.76048193,5.23245933 C4.60240964,4.96260287 4.43759036,4.69619139 4.28409639,4.42380861 C4.51204819,4.64566507 4.7260241,4.88038278 4.9486747,5.1070622 C5.30192771,5.03265072 5.6260241,4.85626794 5.88795181,4.62063158 C5.86939759,4.752 5.84843373,4.88359809 5.80891566,5.01129187 C6.24385542,4.47961722 6.47518072,3.80095694 6.45084337,3.12688995 C6.40771084,3.25825837 6.33927711,3.3797512 6.27012048,3.50009569 C6.20024096,3.16019139 6.04650602,2.832 5.80048193,2.57431579 C5.4860241,2.63311005 5.17277108,2.69948325 4.85710843,2.75345455 C5.1460241,2.61703349 5.44313253,2.496689 5.73542169,2.36715789 C5.77277108,2.02472727 5.6946988,1.67655502 5.54048193,1.36719617 C5.67445783,1.42828708 5.80987952,1.48914833 5.92843373,1.57596172 C5.52457831,1.00409569 4.9060241,0.573014354 4.20915663,0.386755981 C4.33421687,0.466909091 4.4346988,0.574392344 4.54289157,0.673148325 C4.54216867,0.678200957 4.54072289,0.688535885 4.54,0.693818182 L4.51638554,0.675904306 C4.1660241,0.628593301 3.80144578,0.675904306 3.47662651,0.810028708 C3.4373494,1.11249761 3.4060241,1.41588517 3.36481928,1.7181244 C3.31445783,1.41726316 3.2913253,1.11249761 3.24843373,0.810488038 C2.91566265,0.67108134 2.5426506,0.631119617 2.18361446,0.675444976 C2.28674699,0.572095694 2.39060241,0.468057416 2.5146988,0.386526316 C1.81686747,0.572325359 1.19831325,1.00478469 0.793975904,1.57688038 L0.793975904,1.57688038 Z" id="Shape"></path>
                                <path d="M3.36192771,1.85500478 C3.81518072,2.16688995 4.26650602,2.4815311 4.72024096,2.79295694 C4.55084337,3.30097608 4.37349398,3.8064689 4.20361446,4.31425837 C3.64361446,4.31770335 3.08361446,4.3147177 2.52361446,4.31586603 C2.35060241,3.80853589 2.17686747,3.30166507 2.00457831,2.79410526 C2.45710843,2.48130144 2.90987952,2.16849761 3.36192771,1.85500478 L3.36192771,1.85500478 Z" id="Path"></path>
                            </g>
                            <path d="M3.79156627,11.0540096 C3.86819277,11.0112919 3.95277108,11.0643445 3.97301205,11.139445 C4.49277108,12.3144115 5.58240964,13.242488 6.86481928,13.6053589 C6.94216867,13.6163828 7.0026506,13.6882679 6.96987952,13.7622201 C6.57036145,14.9872536 6.1686747,16.2118278 5.76771084,17.4361722 C5.7539759,17.5121914 5.66650602,17.5503158 5.5946988,17.5181627 C4.58048193,17.2235024 3.62313253,16.752689 2.7826506,16.1364976 C1.56506024,15.2483828 0.594939759,14.0543541 0,12.7075981 L0,12.6547751 C0.0243373494,12.6161914 0.0607228916,12.5865646 0.105301205,12.5709474 C1.3346988,12.0668325 2.56216867,11.5578947 3.79156627,11.0540096 L3.79156627,11.0540096 Z" id="Path" fill="#0090D7"></path>
                            <path d="M14.4893976,11.5379139 C14.5192771,11.5326316 14.5496386,11.5317129 14.5804819,11.5349282 C15.9139759,11.6355215 17.2477108,11.7331292 18.5812048,11.8328038 C18.6551807,11.8300478 18.7154217,11.8948134 18.700241,11.9650909 C18.580241,13.6269474 17.9212048,15.2463158 16.846747,16.5588517 C16.3327711,17.189512 15.7245783,17.7501244 15.0462651,18.2186411 C14.993012,18.2636555 14.9072289,18.24689 14.8713253,18.190622 C14.1053012,17.1968612 13.339759,16.2026411 12.5742169,15.2084211 C12.5313253,15.1466411 12.4684337,15.0931292 12.4496386,15.0196364 C12.4385542,14.9523445 12.5053012,14.9149091 12.553253,14.8809187 C13.6122892,14.1466794 14.306747,12.9597703 14.406506,11.715445 C14.4106024,11.6506794 14.4086747,11.5604211 14.4893976,11.5379139 L14.4893976,11.5379139 Z" id="Path" fill="#FEED01"></path>
                            <path d="M11.1674699,14.2980287 C11.2277108,14.2700096 11.2910843,14.3115789 11.3195181,14.3618756 C12.0677108,15.4252249 12.8187952,16.4867368 13.566506,17.5503158 C13.6303614,17.6258756 13.5609639,17.7149856 13.4831325,17.7466794 C11.7833735,18.8380478 9.68,19.3366507 7.64192771,19.1405167 C7.1226506,19.0913684 6.60771084,18.9999617 6.10554217,18.8651483 C6.03710843,18.8527464 5.99855422,18.7787943 6.02385542,18.7183923 C6.38096386,17.4807273 6.74072289,16.2437512 7.09879518,15.0065455 C7.11156627,14.9284593 7.20361446,14.8919426 7.27542169,14.9250144 C8.27180723,15.1967081 9.36313253,15.1282679 10.3163855,14.742201 C10.6166265,14.6248421 10.8963855,14.4663732 11.1674699,14.2980287 L11.1674699,14.2980287 Z" id="Path" fill="#00963F"></path>
                        </g>
                    </g>
                </g>
            </g>
        </g>
    </g>
</svg>