<?xml version="1.0" encoding="utf-8"?>
<!-- Generator: Adobe Illustrator 19.0.0, SVG Export Plug-In . SVG Version: 6.00 Build 0)  -->
<svg version="1.1" id="Layer_1" xmlns="http://www.w3.org/2000/svg" xmlns:xlink="http://www.w3.org/1999/xlink" x="0px" y="0px"
	 viewBox="0 0 960 560" style="enable-background:new 0 0 960 560;" xml:space="preserve">
<style type="text/css">
	.st0{fill:#05A8CE;}
</style>
<g id="XMLID_1334_">
	<g id="XMLID_305_">
		<g id="XMLID_333_">
			<g id="XMLID_334_">
				<path id="XMLID_335_" class="st0" d="M196.4,264.3l-2.3,77.1h-25.8l4-120.3h26.7l43.9,77.3l2.2-77.3h25.8l-3.4,120.3h-26
					L196.4,264.3z"/>
			</g>
		</g>
		<g id="XMLID_328_">
			<g id="XMLID_329_">
				<path id="XMLID_330_" class="st0" d="M295,341.4c-4.1,0-7.4-0.6-9.8-1.8c-2.5-1.2-4.4-2.9-5.8-5.1c-1.4-2.2-2.3-4.8-2.8-7.9
					c-0.5-3.1-0.7-6.5-0.7-10.2c0-8.9,2.8-15.9,8.5-20.9c5.7-5,13.8-7.5,24.4-7.5h23.8c0.1-3,0-5.4-0.3-7.2c-0.3-1.8-1-3.2-2.2-4.2
					c-1.1-1-2.8-1.6-4.9-1.9c-2.1-0.3-4.9-0.5-8.4-0.5h-35v-20.9h36.1c7.6,0,13.9,0.6,18.9,1.8c5,1.2,9,3.1,11.9,5.8
					c2.9,2.6,5,6.1,6.2,10.4c1.2,4.3,1.8,9.5,1.8,15.6l-2.9,54.4H295z M331.7,306.2h-20.6c-2.2,0-3.9,0.3-5.3,0.9
					c-1.4,0.6-2.4,1.4-3.2,2.3c-0.7,0.9-1.2,2-1.4,3.2c-0.2,1.2-0.4,2.4-0.4,3.6c0,2.4,0.5,4.1,1.6,5c1.1,0.9,2.9,1.4,5.4,1.4h22.9
					L331.7,306.2z"/>
			</g>
		</g>
		<g id="XMLID_324_">
			<g id="XMLID_325_">
				<path id="XMLID_326_" class="st0" d="M417.7,341.4l2.5-65.2h-27.6l-2.7,65.2h-26l4.2-88h111.2c7.6,0,12.9,2.5,16,7.6
					c3.1,5.1,4.5,11.9,4.2,20.4l-2.5,60h-25.8l2.3-58.9c0.2-4.2-1.9-6.3-6.3-6.3h-21.1v2.7l-2.5,62.5H417.7z"/>
			</g>
		</g>
		<g id="XMLID_320_">
			<g id="XMLID_321_">
				<path id="XMLID_322_" class="st0" d="M506.7,341.4l2.9-85.6c4.9-0.7,9.9-1.3,15-1.6c5.1-0.4,9.8-0.6,14.3-0.7
					c4.5-0.1,8.4-0.1,11.7,0c3.4,0.1,5.8,0.3,7.4,0.5l-1.8,22c-5.9-0.4-13.1-0.2-21.7,0.5l-1.8,64.8H506.7z"/>
			</g>
		</g>
		<g id="XMLID_315_">
			<g id="XMLID_316_">
				<path id="XMLID_317_" class="st0" d="M583.1,341.4c-4.1,0-7.4-0.6-9.8-1.8c-2.5-1.2-4.4-2.9-5.8-5.1c-1.4-2.2-2.3-4.8-2.8-7.9
					c-0.5-3.1-0.7-6.5-0.7-10.2c0-8.9,2.8-15.9,8.5-20.9c5.7-5,13.8-7.5,24.4-7.5h23.8c0.1-3,0-5.4-0.3-7.2c-0.3-1.8-1-3.2-2.2-4.2
					c-1.1-1-2.8-1.6-4.9-1.9c-2.1-0.3-4.9-0.5-8.4-0.5h-35v-20.9H606c7.6,0,13.9,0.6,18.9,1.8c5,1.2,9,3.1,11.9,5.8
					c2.9,2.6,5,6.1,6.2,10.4c1.2,4.3,1.8,9.5,1.8,15.6l-2.9,54.4H583.1z M619.8,306.2h-20.6c-2.2,0-3.9,0.3-5.3,0.9
					c-1.4,0.6-2.4,1.4-3.2,2.3c-0.7,0.9-1.2,2-1.4,3.2c-0.2,1.2-0.4,2.4-0.4,3.6c0,2.4,0.5,4.1,1.6,5c1.1,0.9,2.9,1.4,5.4,1.4h22.9
					L619.8,306.2z"/>
			</g>
		</g>
		<g id="XMLID_311_">
			<g id="XMLID_312_">
				<path id="XMLID_313_" class="st0" d="M703.2,242.8c0.8-2.8,1.9-5.3,3.5-7.7l0.5-14.9h-40.7l-0.8,23.7h13.8l-3.2,97.3h27.1
					l0.5-17.3c-1-1.9-1.8-3.9-2.4-6c-1.2-4.6-1.9-9.2-1.9-14l1.7-47.1C701.3,252,701.9,247.4,703.2,242.8z"/>
			</g>
		</g>
		<g id="XMLID_306_">
			<g id="XMLID_307_">
				<path id="XMLID_308_" class="st0" d="M789,304.1c0,4.8-0.6,9.4-1.9,14c-1.3,4.6-3.5,8.7-6.8,12.3c-3.3,3.6-7.8,6.6-13.5,8.8
					c-5.7,2.2-13,3.3-21.8,3.3c-8.9,0-16.2-1.1-21.8-3.3c-5.7-2.2-10.1-5.1-13.4-8.8c-3.3-3.6-5.5-7.8-6.8-12.3
					c-1.3-4.6-1.9-9.3-1.9-14l1.7-47.1c0-4.8,0.6-9.4,1.9-14c1.3-4.6,3.5-8.7,6.8-12.3c3.3-3.6,7.7-6.6,13.4-8.8
					c5.7-2.2,12.9-3.3,21.8-3.3c8.8,0,16,1.1,21.8,3.3c5.7,2.2,10.2,5.1,13.5,8.8c3.3,3.6,5.5,7.8,6.8,12.3c1.3,4.6,1.9,9.3,1.9,14
					L789,304.1z M763.5,259.4c0-2.4-0.2-4.6-0.7-6.6c-0.4-2-1.3-3.7-2.4-5c-1.2-1.3-2.9-2.4-5.1-3.1c-2.2-0.8-5.1-1.1-8.6-1.1
					c-3.5,0-6.4,0.4-8.6,1.1c-2.2,0.8-3.9,1.8-5.1,3.1c-1.2,1.3-2,3-2.4,5c-0.4,2-0.7,4.2-0.7,6.6l-1.7,42.2c0,2.5,0.2,4.7,0.7,6.6
					c0.4,1.9,1.3,3.5,2.4,4.7c1.2,1.3,2.9,2.2,5.1,2.9c2.2,0.7,5.1,1,8.6,1c3.5,0,6.4-0.3,8.6-1c2.2-0.7,3.9-1.7,5.1-2.9
					c1.2-1.3,2-2.8,2.4-4.7c0.4-1.9,0.7-4.1,0.7-6.6L763.5,259.4z"/>
			</g>
		</g>
	</g>
</g>
</svg>
