<?xml version="1.0" encoding="UTF-8"?>
<svg width="35px" height="30px" viewBox="0 0 35 30" version="1.1" xmlns="http://www.w3.org/2000/svg" xmlns:xlink="http://www.w3.org/1999/xlink">
    <title>Points 3</title>
    <defs>
        <linearGradient x1="20.8792793%" y1="15.3649179%" x2="73.2468468%" y2="80.1397114%" id="linearGradient-1">
            <stop stop-color="#FFFFFF" offset="0%"></stop>
            <stop stop-color="#05A8CE" offset="100%"></stop>
        </linearGradient>
        <linearGradient x1="40.3037915%" y1="13.3315046%" x2="57.7404085%" y2="81.9092031%" id="linearGradient-2">
            <stop stop-color="#FFFFFF" offset="0%"></stop>
            <stop stop-color="#05A8CE" offset="100%"></stop>
        </linearGradient>
        <linearGradient x1="20.8792793%" y1="36.7017263%" x2="73.2468468%" y2="61.5722588%" id="linearGradient-3">
            <stop stop-color="#FFFFFF" offset="0%"></stop>
            <stop stop-color="#05A8CE" offset="100%"></stop>
        </linearGradient>
        <linearGradient x1="35.071764%" y1="13.3315046%" x2="61.9170957%" y2="81.9092031%" id="linearGradient-4">
            <stop stop-color="#FFFFFF" offset="0%"></stop>
            <stop stop-color="#05A8CE" offset="100%"></stop>
        </linearGradient>
        <linearGradient x1="35.360675%" y1="13.3315046%" x2="61.6864603%" y2="81.9092031%" id="linearGradient-5">
            <stop stop-color="#FFFFFF" offset="0%"></stop>
            <stop stop-color="#05A8CE" offset="100%"></stop>
        </linearGradient>
        <linearGradient x1="20.8792793%" y1="36.7073654%" x2="73.2468468%" y2="61.5673516%" id="linearGradient-6">
            <stop stop-color="#FFFFFF" offset="0%"></stop>
            <stop stop-color="#05A8CE" offset="100%"></stop>
        </linearGradient>
        <linearGradient x1="20.8792793%" y1="43.0352118%" x2="73.2468468%" y2="56.0608115%" id="linearGradient-7">
            <stop stop-color="#FFFFFF" offset="0%"></stop>
            <stop stop-color="#05A8CE" offset="100%"></stop>
        </linearGradient>
        <linearGradient x1="47.5421046%" y1="13.3315046%" x2="51.9621189%" y2="81.9092031%" id="linearGradient-8">
            <stop stop-color="#FFFFFF" offset="0%"></stop>
            <stop stop-color="#05A8CE" offset="100%"></stop>
        </linearGradient>
        <linearGradient x1="20.8792793%" y1="43.0302733%" x2="73.2468468%" y2="56.0651091%" id="linearGradient-9">
            <stop stop-color="#FFFFFF" offset="0%"></stop>
            <stop stop-color="#05A8CE" offset="100%"></stop>
        </linearGradient>
        <linearGradient x1="44.2803538%" y1="13.3315046%" x2="54.5659495%" y2="81.9092031%" id="linearGradient-10">
            <stop stop-color="#FFFFFF" offset="0%"></stop>
            <stop stop-color="#05A8CE" offset="100%"></stop>
        </linearGradient>
        <linearGradient x1="20.8792793%" y1="18.8425571%" x2="73.2468468%" y2="77.1134434%" id="linearGradient-11">
            <stop stop-color="#FFFFFF" offset="0%"></stop>
            <stop stop-color="#05A8CE" offset="100%"></stop>
        </linearGradient>
        <linearGradient x1="43.0991621%" y1="13.3315046%" x2="55.5088857%" y2="81.9092031%" id="linearGradient-12">
            <stop stop-color="#FFFFFF" offset="0%"></stop>
            <stop stop-color="#05A8CE" offset="100%"></stop>
        </linearGradient>
        <linearGradient x1="20.8792793%" y1="39.8617587%" x2="73.2468468%" y2="58.8223745%" id="linearGradient-13">
            <stop stop-color="#FFFFFF" offset="0%"></stop>
            <stop stop-color="#05A8CE" offset="100%"></stop>
        </linearGradient>
        <linearGradient x1="42.5960037%" y1="13.3315046%" x2="55.9105531%" y2="81.9092031%" id="linearGradient-14">
            <stop stop-color="#FFFFFF" offset="0%"></stop>
            <stop stop-color="#05A8CE" offset="100%"></stop>
        </linearGradient>
        <linearGradient x1="20.8792793%" y1="39.0867362%" x2="73.2468468%" y2="59.4968051%" id="linearGradient-15">
            <stop stop-color="#FFFFFF" offset="0%"></stop>
            <stop stop-color="#05A8CE" offset="100%"></stop>
        </linearGradient>
        <linearGradient x1="41.1734322%" y1="13.3315046%" x2="57.046181%" y2="81.9092031%" id="linearGradient-16">
            <stop stop-color="#FFFFFF" offset="0%"></stop>
            <stop stop-color="#05A8CE" offset="100%"></stop>
        </linearGradient>
        <linearGradient x1="20.8792793%" y1="36.6577198%" x2="73.2468468%" y2="61.6105535%" id="linearGradient-17">
            <stop stop-color="#FFFFFF" offset="0%"></stop>
            <stop stop-color="#05A8CE" offset="100%"></stop>
        </linearGradient>
        <linearGradient x1="24.2373641%" y1="13.3315046%" x2="70.5661136%" y2="81.9092031%" id="linearGradient-18">
            <stop stop-color="#FFFFFF" offset="0%"></stop>
            <stop stop-color="#05A8CE" offset="100%"></stop>
        </linearGradient>
        <linearGradient x1="20.8792793%" y1="36.3734234%" x2="73.2468468%" y2="61.8579504%" id="linearGradient-19">
            <stop stop-color="#FFFFFF" offset="0%"></stop>
            <stop stop-color="#05A8CE" offset="100%"></stop>
        </linearGradient>
        <linearGradient x1="20.8792793%" y1="37.5378871%" x2="73.2468468%" y2="60.8446252%" id="linearGradient-20">
            <stop stop-color="#FFFFFF" offset="0%"></stop>
            <stop stop-color="#05A8CE" offset="100%"></stop>
        </linearGradient>
        <linearGradient x1="20.8792793%" y1="38.1426798%" x2="73.2468468%" y2="60.3183301%" id="linearGradient-21">
            <stop stop-color="#FFFFFF" offset="0%"></stop>
            <stop stop-color="#05A8CE" offset="100%"></stop>
        </linearGradient>
        <linearGradient x1="20.8792793%" y1="30.7208693%" x2="73.2468468%" y2="66.7768459%" id="linearGradient-22">
            <stop stop-color="#FFFFFF" offset="0%"></stop>
            <stop stop-color="#05A8CE" offset="100%"></stop>
        </linearGradient>
        <linearGradient x1="20.8792793%" y1="26.0831803%" x2="73.2468468%" y2="70.8125981%" id="linearGradient-23">
            <stop stop-color="#FFFFFF" offset="0%"></stop>
            <stop stop-color="#05A8CE" offset="100%"></stop>
        </linearGradient>
        <linearGradient x1="20.8792793%" y1="18.9252329%" x2="73.2468468%" y2="77.0414983%" id="linearGradient-24">
            <stop stop-color="#FFFFFF" offset="0%"></stop>
            <stop stop-color="#05A8CE" offset="100%"></stop>
        </linearGradient>
        <linearGradient x1="20.8792793%" y1="28.813608%" x2="73.2468468%" y2="68.4365592%" id="linearGradient-25">
            <stop stop-color="#FFFFFF" offset="0%"></stop>
            <stop stop-color="#05A8CE" offset="100%"></stop>
        </linearGradient>
        <linearGradient x1="20.8792793%" y1="30.2696857%" x2="73.2468468%" y2="67.1694693%" id="linearGradient-26">
            <stop stop-color="#FFFFFF" offset="0%"></stop>
            <stop stop-color="#05A8CE" offset="100%"></stop>
        </linearGradient>
        <linearGradient x1="20.8792793%" y1="24.0009508%" x2="73.2468468%" y2="72.62457%" id="linearGradient-27">
            <stop stop-color="#FFFFFF" offset="0%"></stop>
            <stop stop-color="#05A8CE" offset="100%"></stop>
        </linearGradient>
        <linearGradient x1="33.8169064%" y1="13.3315046%" x2="62.9188389%" y2="81.9092031%" id="linearGradient-28">
            <stop stop-color="#FFFFFF" offset="0%"></stop>
            <stop stop-color="#05A8CE" offset="100%"></stop>
        </linearGradient>
        <linearGradient x1="39.7561479%" y1="13.3315046%" x2="58.1775882%" y2="81.9092031%" id="linearGradient-29">
            <stop stop-color="#FFFFFF" offset="0%"></stop>
            <stop stop-color="#05A8CE" offset="100%"></stop>
        </linearGradient>
        <linearGradient x1="30.9115831%" y1="13.3315046%" x2="65.2381361%" y2="81.9092031%" id="linearGradient-30">
            <stop stop-color="#FFFFFF" offset="0%"></stop>
            <stop stop-color="#05A8CE" offset="100%"></stop>
        </linearGradient>
        <linearGradient x1="42.459527%" y1="13.3315046%" x2="56.0195015%" y2="81.9092031%" id="linearGradient-31">
            <stop stop-color="#FFFFFF" offset="0%"></stop>
            <stop stop-color="#05A8CE" offset="100%"></stop>
        </linearGradient>
        <linearGradient x1="44.3040738%" y1="13.3315046%" x2="54.547014%" y2="81.9092031%" id="linearGradient-32">
            <stop stop-color="#FFFFFF" offset="0%"></stop>
            <stop stop-color="#05A8CE" offset="100%"></stop>
        </linearGradient>
        <linearGradient x1="20.8792793%" y1="18.8578336%" x2="73.2468468%" y2="77.1001497%" id="linearGradient-33">
            <stop stop-color="#FFFFFF" offset="0%"></stop>
            <stop stop-color="#05A8CE" offset="100%"></stop>
        </linearGradient>
        <linearGradient x1="43.1511828%" y1="13.3315046%" x2="55.467358%" y2="81.9092031%" id="linearGradient-34">
            <stop stop-color="#FFFFFF" offset="0%"></stop>
            <stop stop-color="#05A8CE" offset="100%"></stop>
        </linearGradient>
        <linearGradient x1="20.8792793%" y1="39.8609655%" x2="73.2468468%" y2="58.8230648%" id="linearGradient-35">
            <stop stop-color="#FFFFFF" offset="0%"></stop>
            <stop stop-color="#05A8CE" offset="100%"></stop>
        </linearGradient>
        <linearGradient x1="20.8792793%" y1="39.0639122%" x2="73.2468468%" y2="59.5166667%" id="linearGradient-36">
            <stop stop-color="#FFFFFF" offset="0%"></stop>
            <stop stop-color="#05A8CE" offset="100%"></stop>
        </linearGradient>
        <linearGradient x1="41.095603%" y1="13.3315046%" x2="57.1083115%" y2="81.9092031%" id="linearGradient-37">
            <stop stop-color="#FFFFFF" offset="0%"></stop>
            <stop stop-color="#05A8CE" offset="100%"></stop>
        </linearGradient>
        <linearGradient x1="20.8792793%" y1="36.6824468%" x2="73.2468468%" y2="61.5890359%" id="linearGradient-38">
            <stop stop-color="#FFFFFF" offset="0%"></stop>
            <stop stop-color="#05A8CE" offset="100%"></stop>
        </linearGradient>
        <linearGradient x1="24.2328883%" y1="13.3315046%" x2="70.5696866%" y2="81.9092031%" id="linearGradient-39">
            <stop stop-color="#FFFFFF" offset="0%"></stop>
            <stop stop-color="#05A8CE" offset="100%"></stop>
        </linearGradient>
        <linearGradient x1="20.8792793%" y1="37.4684254%" x2="73.2468468%" y2="60.9050713%" id="linearGradient-40">
            <stop stop-color="#FFFFFF" offset="0%"></stop>
            <stop stop-color="#05A8CE" offset="100%"></stop>
        </linearGradient>
        <linearGradient x1="20.8792793%" y1="38.0609266%" x2="73.2468468%" y2="60.3894723%" id="linearGradient-41">
            <stop stop-color="#FFFFFF" offset="0%"></stop>
            <stop stop-color="#05A8CE" offset="100%"></stop>
        </linearGradient>
        <linearGradient x1="20.8792793%" y1="30.5781968%" x2="73.2468468%" y2="66.9010006%" id="linearGradient-42">
            <stop stop-color="#FFFFFF" offset="0%"></stop>
            <stop stop-color="#05A8CE" offset="100%"></stop>
        </linearGradient>
        <linearGradient x1="20.8792793%" y1="26.0931285%" x2="73.2468468%" y2="70.8039411%" id="linearGradient-43">
            <stop stop-color="#FFFFFF" offset="0%"></stop>
            <stop stop-color="#05A8CE" offset="100%"></stop>
        </linearGradient>
        <linearGradient x1="20.8792793%" y1="18.8778831%" x2="73.2468468%" y2="77.0827025%" id="linearGradient-44">
            <stop stop-color="#FFFFFF" offset="0%"></stop>
            <stop stop-color="#05A8CE" offset="100%"></stop>
        </linearGradient>
        <linearGradient x1="20.8792793%" y1="28.8428161%" x2="73.2468468%" y2="68.4111421%" id="linearGradient-45">
            <stop stop-color="#FFFFFF" offset="0%"></stop>
            <stop stop-color="#05A8CE" offset="100%"></stop>
        </linearGradient>
        <linearGradient x1="20.8792793%" y1="30.3066102%" x2="73.2468468%" y2="67.1373373%" id="linearGradient-46">
            <stop stop-color="#FFFFFF" offset="0%"></stop>
            <stop stop-color="#05A8CE" offset="100%"></stop>
        </linearGradient>
        <linearGradient x1="20.8792793%" y1="23.9439012%" x2="73.2468468%" y2="72.674215%" id="linearGradient-47">
            <stop stop-color="#FFFFFF" offset="0%"></stop>
            <stop stop-color="#05A8CE" offset="100%"></stop>
        </linearGradient>
        <linearGradient x1="33.8012716%" y1="13.3315046%" x2="62.93132%" y2="81.9092031%" id="linearGradient-48">
            <stop stop-color="#FFFFFF" offset="0%"></stop>
            <stop stop-color="#05A8CE" offset="100%"></stop>
        </linearGradient>
        <linearGradient x1="39.7439696%" y1="13.3315046%" x2="58.18731%" y2="81.9092031%" id="linearGradient-49">
            <stop stop-color="#FFFFFF" offset="0%"></stop>
            <stop stop-color="#05A8CE" offset="100%"></stop>
        </linearGradient>
        <linearGradient x1="31.1120391%" y1="13.3315046%" x2="65.0781136%" y2="81.9092031%" id="linearGradient-50">
            <stop stop-color="#FFFFFF" offset="0%"></stop>
            <stop stop-color="#05A8CE" offset="100%"></stop>
        </linearGradient>
    </defs>
    <g id="PC-version" stroke="none" stroke-width="1" fill="none" fill-rule="evenodd">
        <g id="Homepage" transform="translate(-1206.000000, -313.000000)" fill-rule="nonzero">
            <g id="Group" transform="translate(1100.000000, 0.000000)">
                <g id="Infos" transform="translate(55.000000, 309.000000)">
                    <g id="Group" transform="translate(51.000000, 2.000000)">
                        <g id="Ranking" transform="translate(0.000000, 2.430556)">
                            <g id="Group-77" transform="translate(10.208333, 5.833333)">
                                <polygon id="Path" fill="url(#linearGradient-1)" points="9.6127193 4.69502315 14.6927083 5.44039352 11.0244883 9.10243056 11.8969298 14.2673611 7.35230263 11.8368056 2.81957237 14.2795139 3.67615132 9.11458333 -2.30774464e-12 5.46469907 5.07205775 4.703125 7.33644006 0"></polygon>
                                <polygon id="Path" fill="url(#linearGradient-2)" points="9.6127193 4.69502315 7.33644006 -4.74928738e-14 5.07205775 4.703125 5.07205775 4.703125 7.3404057 7.90335648 9.63254751 4.69907407"></polygon>
                                <polygon id="Path" fill="url(#linearGradient-3)" points="7.3404057 7.90335648 11.0284539 9.12673611 11.0244883 9.10243056 14.6927083 5.44039352 9.62461623 4.69907407"></polygon>
                                <polygon id="Path" fill="url(#linearGradient-4)" points="11.8969298 14.2673611 11.0284539 9.12673611 7.3404057 7.90335648 7.3404057 11.8449074 7.3404057 11.8449074 7.35230263 11.8368056"></polygon>
                                <polygon id="Path" fill="url(#linearGradient-5)" points="2.81957237 14.2795139 7.3404057 11.8449074 7.3404057 7.90335648 3.67615132 9.12268519"></polygon>
                                <polygon id="Path" fill="url(#linearGradient-6)" points="7.3404057 7.90335648 5.06809211 4.703125 1.84704104e-12 5.46469907 3.67615132 9.11458333 3.67615132 9.12268519"></polygon>
                                <polygon id="Path" fill="url(#linearGradient-7)" points="7.3404057 7.90335648 9.62461623 4.69907407 14.6927083 5.44039352"></polygon>
                                <polygon id="Path" fill="url(#linearGradient-8)" points="7.3404057 7.90335648 9.63254751 4.69907407 9.6127193 4.69502315 7.33644006 -4.74928738e-14"></polygon>
                                <polygon id="Path" fill="url(#linearGradient-9)" points="1.84704104e-12 5.46469907 5.06809211 4.703125 7.3404057 7.90335648"></polygon>
                                <polygon id="Path" fill="url(#linearGradient-5)" points="2.81957237 14.2795139 3.67615132 9.12268519 7.3404057 7.90335648"></polygon>
                                <polygon id="Path" fill="url(#linearGradient-4)" points="11.8969298 14.2673611 7.35230263 11.8368056 7.3404057 11.8449074 7.3404057 11.8449074 7.3404057 7.90335648"></polygon>
                            </g>
                            <g id="Group-76">
                                <path d="M15.9751524,26.461304 C15.4966766,26.3924223 15.0224545,26.2947695 14.554878,26.1688382 C9.04593496,24.6861993 5.16463415,19.9295688 5.16463415,14.0111993 C5.16463415,8.8036841 8.01692073,3.98206119 12.7394309,2.12977809 L12.7394309,1.94292497 C7.89071289,3.81877695 4.68692087,8.63925377 4.71859756,14.0111993 C4.71724662,20.1354688 8.70132918,25.4873597 14.4101118,27.0299874 C14.9248008,27.1689393 15.447558,27.2734131 15.9751524,27.3427632 L15.9751524,26.461304 Z" id="Path" fill="url(#linearGradient-10)"></path>
                                <path d="M10.3097053,0.838054345 C11.2645638,0.0542433756 12.5268291,-0.198760925 13.6941057,0.159696278 L13.6941057,0.159696278 L13.7110801,0.395887431 C13.7610992,1.57500945 13.2911109,2.71929088 12.4264228,3.4986803 C11.461728,4.29804883 10.1792925,4.5518682 8.99898374,4.17703836 L8.99898374,4.17703836 L9.02432001,4.15504832 C8.91056923,2.89906154 9.38917688,1.66292702 10.3097053,0.838054345 Z" id="Combined-Shape" fill="url(#linearGradient-11)"></path>
                                <path d="M5.90411585,4.03486751 C5.9270681,4.996598 6.38336932,5.89141645 7.13658537,6.451772 C7.87109485,5.86574822 8.294048,4.9525356 8.27629619,3.99098335 C8.25854439,3.02943111 7.8021955,2.1337154 7.04659553,1.57734278 C6.31734373,2.16662421 5.89481045,3.07551213 5.90411585,4.03486751 Z" id="Path" fill="url(#linearGradient-12)"></path>
                                <path d="M9.43328252,5.13567611 C8.50762332,5.17082767 7.65212079,5.65706545 7.12484756,6.44770998 C7.69807054,7.20466073 8.58405143,7.63322772 9.51102105,7.60195067 C10.4379907,7.57067363 11.2952981,7.08328603 11.8199695,6.28929103 C11.241406,5.53914318 10.3586577,5.11246321 9.43328252,5.13567611 Z" id="Path" fill="url(#linearGradient-13)"></path>
                                <path d="M4.15909553,7.07326173 C4.32190009,8.01918655 4.90074082,8.831967 5.72413618,9.2708169 C6.3697759,8.57932394 6.6598464,7.61007812 6.50534237,6.66048312 C6.35083834,5.71088811 5.77020938,4.89433682 4.94161585,4.46138007 C4.30053562,5.15634265 4.0108064,6.12339542 4.15909553,7.07326173 L4.15909553,7.07326173 Z" id="Path" fill="url(#linearGradient-14)"></path>
                                <path d="M7.82520325,7.61351097 C6.91007178,7.78986126 6.12776679,8.40200532 5.71239837,9.26675488 C6.38712325,9.9273189 7.3243546,10.2151264 8.23663053,10.0419028 C9.14890646,9.86867929 9.92734228,9.25509975 10.3331809,8.38935762 C9.65823333,7.74109974 8.73184044,7.4545187 7.82520325,7.61351097 L7.82520325,7.61351097 Z" id="Path" fill="url(#linearGradient-15)"></path>
                                <path d="M2.79359756,10.4731761 C3.11777574,11.4492326 3.86347573,12.2113849 4.8085874,12.5326225 C5.36927905,11.6797613 5.5140081,10.6039265 5.19984756,9.62421302 C4.87542409,8.64774954 4.12765722,7.88647041 3.18094512,7.5688287 C2.622833,8.42133847 2.47960054,9.49530118 2.79359756,10.4731761 L2.79359756,10.4731761 Z" id="Path" fill="url(#linearGradient-16)"></path>
                                <path d="M6.7335874,10.3919356 C5.8614609,10.7179738 5.18765034,11.450614 4.91422764,12.3701415 C5.68062751,12.9134822 6.65064029,13.044874 7.52566373,12.7238703 C8.40068717,12.4028665 9.07584185,11.6679423 9.34329268,10.7453317 C8.57456219,10.2101155 7.60883414,10.0793403 6.7335874,10.3919356 L6.7335874,10.3919356 Z" id="Path" fill="url(#linearGradient-17)"></path>
                                <path d="M1.99151423,14.3483473 C2.74316817,15.1354381 3.81184587,15.5022493 4.86727642,15.3354193 C5.06617784,14.2462807 4.7505003,13.124134 4.01824187,12.3173352 C3.26658793,11.5302444 2.19791022,11.1634332 1.14247967,11.3302632 C0.943578258,12.4194018 1.2592558,13.5415485 1.99151423,14.3483473 L1.99151423,14.3483473 Z" id="Path" fill="url(#linearGradient-18)"></path>
                                <path d="M6.7296748,13.2109805 C5.86314922,13.5524142 5.20019599,14.2947856 4.93770325,15.2176206 C5.71349897,15.7471446 6.68567405,15.8619011 7.55617058,15.5267071 C8.42666711,15.191513 9.091636,14.4463566 9.34720528,13.5196944 C8.56880157,12.9986596 7.60081717,12.8844947 6.7296748,13.2109805 L6.7296748,13.2109805 Z" id="Path" fill="url(#linearGradient-19)"></path>
                                <path d="M5.43069106,17.6182769 C5.02761236,16.5402389 4.157007,15.7237575 3.08313008,15.4166597 C1.99754845,15.144342 0.851973676,15.4265802 9.12558195e-13,16.1762583 C0.399354309,17.2569543 1.2715144,18.0748937 2.34756098,18.3778755 C3.43313576,18.6529184 4.5799029,18.3703864 5.43069106,17.6182769 Z" id="Path" fill="url(#linearGradient-20)"></path>
                                <path d="M3.96737805,21.6640532 C4.9721872,21.4377299 5.81247932,20.7268435 6.22886179,19.7508397 C5.4788592,19.0204354 4.4376522,18.7064103 3.42743902,18.9059387 C2.4250063,19.1333821 1.58755351,19.8443265 1.17378049,20.8191521 C1.9220094,21.5470118 2.95969018,21.86085 3.96737805,21.6640532 L3.96737805,21.6640532 Z" id="Path" fill="url(#linearGradient-21)"></path>
                                <path d="M5.83368902,24.0647096 C6.66182071,23.5688226 7.21153579,22.6916221 7.31265244,21.7046734 C6.44808249,21.2812755 5.44083047,21.311455 4.60121951,21.7859139 C3.7766788,22.2823773 3.23005878,23.1577693 3.1300813,24.1418881 C3.99160029,24.5651082 4.99587273,24.5364398 5.83368902,24.0647096 Z" id="Path" fill="url(#linearGradient-22)"></path>
                                <path d="M7.65696138,26.1038458 C8.39170808,25.5696588 8.83656743,24.7033154 8.85421748,23.7722438 C8.01449697,23.4358268 7.06916349,23.5492258 6.32546448,24.0755845 C5.58176546,24.6019433 5.13464382,25.4740652 5.12942073,26.4084976 C5.97047724,26.7316068 6.90958094,26.6184139 7.65696138,26.1038458 Z" id="Path" fill="url(#linearGradient-23)"></path>
                                <path d="M9.90279472,27.2858949 C10.4848706,26.7635656 10.7952504,25.986592 10.7400915,25.1898903 C9.9892481,24.9635655 9.1791495,25.1401758 8.57941744,25.6609406 C7.97968538,26.1817055 7.66903689,26.9782726 7.75086382,27.7855239 C8.50390518,27.9825835 9.30234306,27.7972045 9.90279472,27.2858949 L9.90279472,27.2858949 Z" id="Path" fill="url(#linearGradient-24)"></path>
                                <path d="M6.57317073,15.6644432 C5.89677409,16.1128855 5.46221492,16.8648105 5.39939024,17.6954554 C6.14736047,18.0035174 6.99207018,17.9221635 7.67269276,17.4765138 C8.35331534,17.0308642 8.78798269,16.2745234 8.84247967,15.4410319 C8.09436328,15.1403321 7.25351063,15.2231133 6.57317073,15.6644432 Z" id="Path" fill="url(#linearGradient-25)"></path>
                                <path d="M7.36351626,17.7360757 C6.67467568,18.1645811 6.22081394,18.9052451 6.13887195,19.7345916 C6.88019932,20.0703489 7.73162053,20.0168735 8.42855401,19.5907833 C9.1254875,19.1646931 9.58348163,18.4176198 9.66021341,17.5817187 C8.91430185,17.2526626 8.06233698,17.3099216 7.36351626,17.7360757 L7.36351626,17.7360757 Z" id="Path" fill="url(#linearGradient-26)"></path>
                                <path d="M8.33384146,19.6614752 C7.69510793,20.1651566 7.31898718,20.94913 7.31656504,21.7818519 C8.08571624,22.0261863 8.92096164,21.8758619 9.56601545,21.3770041 C10.2110693,20.8781463 10.5889048,20.0903244 10.5835874,19.2552728 C9.81368642,19.019102 8.98173558,19.1693147 8.33384146,19.6614752 Z" id="Path" fill="url(#linearGradient-27)"></path>
                                <path d="M9.27286585,21.3187811 C8.82123288,22.0062392 8.70541513,22.8734763 8.95985772,23.6625692 C9.7630895,23.6391053 10.5077165,23.2205196 10.965667,22.5350205 C11.4236176,21.8495214 11.5403203,20.9787959 11.2800305,20.1895384 C10.4773514,20.2180672 9.73414505,20.6361995 9.27286585,21.3187811 L9.27286585,21.3187811 Z" id="Path" fill="url(#linearGradient-28)"></path>
                                <path d="M10.704878,23.1588782 C10.4293479,23.8335939 10.4742404,24.6033604 10.8261687,25.2386346 C11.5149008,25.073982 12.0871331,24.5790405 12.3674943,23.9054941 C12.6478555,23.2319478 12.6029141,22.4601135 12.2464431,21.8265342 C11.5603288,21.9962564 10.9900471,22.4891395 10.704878,23.1588782 L10.704878,23.1588782 Z" id="Path" fill="url(#linearGradient-29)"></path>
                                <path d="M12.9624492,28.3948276 C13.3799113,27.8121569 13.5048864,27.0578086 13.2989329,26.3638154 C12.6001866,26.3312548 11.9299269,26.6539394 11.5024495,27.2287004 C11.0749721,27.8034615 10.9438161,28.5583133 11.1509146,29.2519147 C11.8517605,29.2819557 12.5244887,28.9636693 12.9624492,28.3948276 Z" id="Path" fill="url(#linearGradient-30)"></path>
                                <path d="M12.876372,24.5602766 C12.7621898,25.2148434 12.950509,25.887101 13.3850102,26.3760015 C13.9651546,26.0886577 14.3784394,25.531199 14.4975039,24.8754153 C14.6165684,24.2196317 14.4271239,23.544223 13.9875508,23.0573276 C13.4125402,23.3521004 13.0019936,23.9073941 12.876372,24.5602766 Z" id="Path" fill="url(#linearGradient-31)"></path>
                            </g>
                            <g id="Group-78" transform="translate(18.958333, 0.000000)">
                                <path d="M3.25528455,1.94687705 L3.25528455,2.13373017 C7.95823171,3.98601328 10.8105183,8.80763618 10.8105183,14.0151514 C10.8105183,19.9335209 6.92530488,24.6901514 1.42027439,26.1727903 C0.952781451,26.2991005 0.47853793,26.3967577 4.95547596e-12,26.465256 L4.95547596e-12,27.3467153 C0.52751079,27.2768209 1.05023473,27.1723537 1.56504065,27.0339395 C7.265307,25.483249 11.2385932,20.1329011 11.2330793,14.0151514 C11.2714296,8.65456954 8.08704808,3.83745006 3.25528455,1.94687705 L3.25528455,1.94687705 Z" id="Path" fill="url(#linearGradient-32)"></path>
                                <path d="M5.65762195,0.842006426 C6.58252626,1.67170176 7.05752901,2.91897462 6.92921748,4.18099044 C5.76074957,4.54085971 4.49668753,4.28778785 3.54090447,3.50263238 C2.61444887,2.67335719 2.13552217,1.42728296 2.25757114,0.163648359 C3.42957449,-0.201181968 4.69935633,0.0521574088 5.65762195,0.842006426 Z" id="Path" fill="url(#linearGradient-33)"></path>
                                <path d="M10.0592988,4.03881959 C10.0363465,5.00055008 9.58004532,5.89536853 8.82682927,6.45572408 C8.09647601,5.86557427 7.67381781,4.9549149 7.68434959,3.99413732 C7.7036487,3.02585505 8.16007858,2.12326268 8.91681911,1.55692271 C9.65419737,2.15015701 10.0778634,3.07051945 10.0592988,4.03881959 Z" id="Path" fill="url(#linearGradient-34)"></path>
                                <path d="M6.53795732,5.13962819 C7.46434163,5.1760494 8.32052535,5.66185095 8.85030488,6.45166206 C8.2770819,7.20861281 7.39110101,7.6371798 6.46413139,7.60590276 C5.53716177,7.57462571 4.67985436,7.08723811 4.15518293,6.29324311 C4.73136377,5.54221226 5.61343464,5.11515961 6.53795732,5.13962819 L6.53795732,5.13962819 Z" id="Path" fill="url(#linearGradient-35)"></path>
                                <path d="M11.8082317,7.07721381 C11.6483032,8.02442191 11.0686112,8.83839767 10.2431911,9.27476898 C9.59755133,8.58327602 9.30748083,7.6140302 9.46198487,6.6644352 C9.6164889,5.71484019 10.1971179,4.8982889 11.0257114,4.46533215 C11.6667916,5.16029473 11.9565208,6.1273475 11.8082317,7.07721381 Z" id="Path" fill="url(#linearGradient-14)"></path>
                                <path d="M8.16168699,7.61746305 C9.07072876,7.7990713 9.84620002,8.41039639 10.2588415,9.27070696 C9.58411659,9.93127098 8.64688523,10.2190785 7.73460931,10.0458549 C6.82233338,9.87263137 6.04389756,9.25905183 5.63805894,8.3933097 C6.31630907,7.73955446 7.24992187,7.45253103 8.16168699,7.61746305 L8.16168699,7.61746305 Z" id="Path" fill="url(#linearGradient-36)"></path>
                                <path d="M13.1893801,10.4771282 C12.8652019,11.4531847 12.1195019,12.215337 11.1743902,12.5365745 C10.6019905,11.6895088 10.452368,10.6100712 10.7714795,9.62981289 C11.0905911,8.64955458 11.8402862,7.88566745 12.7902947,7.57278078 C13.3558765,8.42186189 13.5037108,9.49772725 13.1893801,10.4771282 Z" id="Path" fill="url(#linearGradient-37)"></path>
                                <path d="M9.23373984,10.3958877 C10.1070205,10.7214119 10.7822349,11.454003 11.0570122,12.3740936 C10.2899747,12.9173209 9.31954207,13.0486635 8.44399441,12.7277509 C7.56844676,12.4068383 6.89254301,11.6720675 6.62403455,10.7492838 C7.39276504,10.2140675 8.3584931,10.0832924 9.23373984,10.3958877 L9.23373984,10.3958877 Z" id="Path" fill="url(#linearGradient-38)"></path>
                                <path d="M13.9719004,14.3522994 C13.2205912,15.1399678 12.1516236,15.5068785 11.0961382,15.3393713 C10.8833314,14.2494336 11.2006352,13.1205642 11.9446816,12.3205147 C12.6887279,11.5204653 13.7642723,11.1516491 14.820935,11.3342153 C15.0198364,12.4233539 14.7041588,13.5455006 13.9719004,14.3522994 Z" id="Path" fill="url(#linearGradient-39)"></path>
                                <path d="M9.23765244,13.2149326 C10.1055781,13.5542062 10.7693116,14.2974515 11.029624,15.2215726 C10.2538283,15.7510967 9.28165318,15.8658532 8.41115666,15.5306592 C7.54066013,15.1954651 6.87569124,14.4503087 6.62012195,13.5236465 C7.39852566,13.0026117 8.36651007,12.8884468 9.23765244,13.2149326 L9.23765244,13.2149326 Z" id="Path" fill="url(#linearGradient-19)"></path>
                                <path d="M13.6158537,18.3818276 C12.5315094,18.6568571 11.3859174,18.3742561 10.5366362,17.622229 C10.9237296,16.5316588 11.8025855,15.7084139 12.8871789,15.4204204 C13.9717723,15.1324268 15.1234239,15.4165084 15.9673272,16.1802104 C15.5671844,17.261869 14.6933857,18.0799817 13.6158537,18.3818276 Z" id="Path" fill="url(#linearGradient-40)"></path>
                                <path d="M12.0155996,21.6680053 C11.0096526,21.4441396 10.1684096,20.7324487 9.75411585,19.7547918 C10.4956932,19.0079581 11.544479,18.6891451 12.5569379,18.9027818 C13.5693968,19.1164184 14.415096,19.8349823 14.8170224,20.8231042 C14.0666961,21.552919 13.0257817,21.8668558 12.0155996,21.6680053 L12.0155996,21.6680053 Z" id="Path" fill="url(#linearGradient-41)"></path>
                                <path d="M10.1336382,24.0686617 C9.30564947,23.573313 8.75698737,22.6954705 8.6585874,21.7086255 C9.51876578,21.2720049 10.5306315,21.3018005 11.3655895,21.7883366 C12.2005475,22.2748727 12.7521088,23.1560974 12.8411585,24.1458401 C11.9785583,24.5704395 10.9724974,24.5417615 10.1336382,24.0686617 Z" id="Path" fill="url(#linearGradient-42)"></path>
                                <path d="M8.31036585,26.1077979 C7.57561915,25.5736109 7.13075981,24.7072675 7.11310976,23.7761959 C7.95327302,23.4380688 8.89988225,23.5506167 9.64466128,24.0771867 C10.3894403,24.6037567 10.837087,25.4769689 10.8418191,26.4124497 C9.99961882,26.7369461 9.05872955,26.6237133 8.31036585,26.1077979 L8.31036585,26.1077979 Z" id="Path" fill="url(#linearGradient-43)"></path>
                                <path d="M6.06844512,27.289847 C5.48481288,26.7686864 5.1740932,25.990862 5.23114837,25.1938424 C5.98146627,24.9691866 6.79026871,25.1465815 7.38894772,25.6671133 C7.98762674,26.1876451 8.29780234,26.9831649 8.21646341,27.789476 C7.46466032,27.986504 6.66740758,27.8010631 6.06844512,27.289847 Z" id="Path" fill="url(#linearGradient-44)"></path>
                                <path d="M9.39806911,15.6683953 C10.0735686,16.1177427 10.5078335,16.8691585 10.5718496,17.6994075 C9.82344333,18.0091134 8.97750923,17.9285891 8.29582893,17.4827536 C7.61414863,17.036918 7.17892715,16.2795353 7.12484756,15.444984 C7.8743584,15.1448701 8.71611614,15.2275977 9.39806911,15.6683953 L9.39806911,15.6683953 Z" id="Path" fill="url(#linearGradient-45)"></path>
                                <path d="M8.60381098,17.7400277 C9.29238759,18.1694899 9.7471697,18.9092922 9.83236789,19.7385437 C9.0909454,20.0723921 8.240455,20.0180303 7.54407832,19.5922805 C6.84770164,19.1665306 6.38941227,18.4207324 6.31102642,17.5856708 C7.05571915,17.2573298 7.90620025,17.3145866 8.60381098,17.7400277 L8.60381098,17.7400277 Z" id="Path" fill="url(#linearGradient-46)"></path>
                                <path d="M7.63348577,19.6654273 C8.27365634,20.1678717 8.65015674,20.9526365 8.6507622,21.785804 C7.88201393,22.0304356 7.04699289,21.8801127 6.40245673,21.3810576 C5.75792058,20.8820025 5.38102209,20.0939534 5.38765244,19.2592248 C6.15632448,19.0237585 6.98679766,19.1739657 7.63348577,19.6654273 Z" id="Path" fill="url(#linearGradient-47)"></path>
                                <path d="M6.69446138,21.3227332 C7.14785027,22.0094869 7.26378638,22.8776103 7.00746951,23.6665213 C6.20423773,23.6430574 5.45961074,23.2244717 5.00166021,22.5389726 C4.54370967,21.8534735 4.4270069,20.982748 4.68729675,20.1934904 C5.49030645,20.2207545 6.2340223,20.6391735 6.69446138,21.3227332 Z" id="Path" fill="url(#linearGradient-48)"></path>
                                <path d="M5.26244919,23.1628302 C5.53917043,23.8369173 5.49572719,24.6066639 5.14507114,25.2425867 C4.45563677,25.0789664 3.88237544,24.5844419 3.60118011,23.9107475 C3.31998477,23.2370532 3.36443202,22.4646325 3.72088415,21.8304863 C4.40755762,21.9990474 4.97827856,22.4923101 5.26244919,23.1628302 Z" id="Path" fill="url(#linearGradient-49)"></path>
                                <path d="M3.01661585,28.3987796 C2.60093464,27.8153179 2.47611178,27.0618885 2.68013211,26.3677675 C3.3768488,26.339317 4.04352091,26.663725 4.46819384,27.2378526 C4.89286677,27.8119802 5.02269883,28.5643892 4.8164126,29.2558668 C4.11963578,29.281986 3.4520859,28.9640899 3.01661585,28.3987796 Z" id="Path" fill="url(#linearGradient-50)"></path>
                                <path d="M3.09095528,24.5642286 C3.20513744,25.2187955 3.01681821,25.8910531 2.58231707,26.3799535 C2.00217259,26.0926098 1.58888787,25.5351511 1.46982335,24.8793674 C1.35075882,24.2235838 1.54020332,23.5481751 1.97977642,23.0612796 C2.55596281,23.3545635 2.96702311,23.910552 3.09095528,24.5642286 Z" id="Path" fill="url(#linearGradient-31)"></path>
                            </g>
                        </g>
                    </g>
                </g>
            </g>
        </g>
    </g>
</svg>