
<svg width="16px" height="20px" viewBox="0 0 16 20" version="1.1" xmlns="http://www.w3.org/2000/svg" xmlns:xlink="http://www.w3.org/1999/xlink">
    <g id="PC-version" stroke="none" stroke-width="1" fill="none" fill-rule="evenodd">
        <g id="Homepage" transform="translate(-248.000000, -44.000000)" fill="#3D195B" fill-rule="nonzero">
            <g id="Group-3" transform="translate(80.000000, 36.000000)">
                <g id="Useful-elements/Search-Copy" transform="translate(156.000000, 0.000000)">
                    <g id="Premier_League_Logo" transform="translate(12.000000, 8.000000)">
                        <path d="M14.0252785,9.15097512 C13.590443,9.50925743 13.2217944,9.70894189 13.2217944,9.70894189 L13.2268244,10.8445963 C13.5376595,11.1847979 13.8443068,11.4666555 14.073874,11.9802485 C14.5095471,11.2110955 14.4257642,10.0803684 14.0252808,9.15097512 M13.6717132,12.8685575 C13.6717132,12.8685575 13.5829048,12.4001618 13.2050405,11.9629935 L12.34291,11.9835473 C12.34291,11.9835473 11.1808351,12.9630722 10.4720269,12.986078 C10.4720269,12.986078 10.8624571,13.6985342 11.0601873,14.0707865 C11.4497799,13.9869663 12.1359642,13.6853854 12.4124495,13.3698344 C12.4124495,13.3698344 12.5950986,13.9475244 12.5607465,14.6295722 C12.948664,14.4093456 13.483201,13.8111135 13.6717132,12.8685691 M12.5607465,10.8174891 L12.5591314,9.68594304 C12.5591314,9.68594304 12.0438632,9.5240603 11.4942452,9.10578937 C10.3899792,9.26931919 9.05279558,10.3589528 9.05279558,10.3589528 C9.05279558,10.3589528 9.50438954,11.199603 9.9987114,12.1068117 C10.8675449,12.2259631 12.1477549,11.1494737 12.5608065,10.8174891 M15.5057913,15.5293853 L14.7953081,14.7577663 C14.5925525,16.8433608 13.5511254,18.6142256 11.638352,19.8493105 L11.3459482,18.7243389 C9.7222261,19.8747846 6.93559152,20.6209318 4.54189986,19.2929885 C4.83932916,17.8056261 5.10324852,16.2985429 4.53686979,14.4939848 C3.21141689,16.5072654 2.03844888,17.2961416 2.03844888,17.2961416 C1.14280606,15.8211069 1.22323638,12.861997 1.49050604,11.9909429 L0,12.443726 C0,11.4494122 0.729752106,9.33998833 1.78710008,8.1550281 L0.856265238,8.00875785 L0.855342289,8.00875785 C1.48790795,6.7408032 2.4321463,5.64787779 3.5875183,4.82695306 L3.58913346,4.82602512 C3.24227105,5.36344743 3.23724329,6.68974594 4.25353622,7.19430082 C3.8220533,6.45226441 3.77010746,5.53519179 4.22086154,5.06022177 C4.67161562,4.58114332 5.42985453,4.74549436 5.91412316,5.11692318 C5.77001633,4.702763 5.34774674,4.18177533 4.71518339,4.1464403 L4.71426045,4.1464403 C5.90901003,3.54327804 7.26546476,3.20389658 8.70067236,3.20389658 C8.9687796,3.20389658 9.23604926,3.21540065 9.49745359,3.23840993 L9.49745359,3.23840993 C9.91469542,3.40275936 10.52715,3.97962582 10.8128533,4.33872982 C10.8128533,4.33872982 10.8329505,3.91552924 10.5933393,3.40440273 C12.1475218,3.77583224 12.8890046,4.39625245 13.1998397,4.69536736 C13.2635162,5.35440935 13.4645967,5.74966984 13.7301889,6.37583976 C13.2266514,5.82280264 11.9615224,4.93038755 11.3574435,4.71673305 C11.3574435,4.71673305 11.3080127,5.28784864 11.1002294,5.56231066 C9.89709941,4.71098218 9.30642637,4.49650413 9.30642637,4.49650413 C7.98600123,4.68221854 7.1364366,5.18184145 6.67479173,5.57463827 L7.07695028,5.91072904 C6.28100894,6.15068119 5.76406562,6.82122492 5.76406562,6.82122492 C5.76992634,6.83356645 6.47538645,6.93216176 6.47538645,6.93216176 C6.47538645,6.93216176 6.40333188,7.74486964 7.44057112,8.25435417 C8.32951334,8.69070125 9.60720829,8.14917052 10.8103382,8.62249578 C10.0194247,7.72679348 9.47231709,7.32660103 9.47231709,7.32660103 C9.47231709,7.32660103 9.15812936,7.2625063 8.9369425,7.26414642 C8.6604572,7.26577031 8.24824313,7.31920539 7.79665148,7.14663749 C7.58049008,7.06364074 7.32830139,6.91737281 7.13057357,6.79575313 C7.13057357,6.79575313 7.6860569,6.2361416 8.49791679,6.11287948 C8.49791679,6.11287948 9.23018393,6.31502992 9.80996617,6.73576451 C10.1953686,6.3676229 10.5975294,6.37912697 10.5975294,6.37912697 C10.5975294,6.37912697 10.1987189,6.74398137 10.319369,7.18608165 C10.8983114,7.69227897 11.5266868,8.41705813 11.5266868,8.41705813 C12.1667907,8.07356709 13.5584328,8.1524554 13.8441337,8.47786797 C13.4821904,8.01687032 12.9602193,7.63229035 12.5563833,7.3035929 C12.5069525,7.131025 12.0662516,6.52950796 11.9916843,6.47362777 C11.9916843,6.47362777 12.4106013,6.6001771 12.7851129,6.9296981 C12.8923549,6.7793171 13.0934353,6.62647244 13.3674079,6.5590905 C13.6489187,6.79082116 13.6991893,7.14663749 13.6916488,7.20580489 C13.5651357,7.35454112 13.4394602,7.41535096 13.4394602,7.41535096 L14.1181063,8.13602169 L14.1859707,7.61914153 C15.7493689,9.80909845 16.6014462,12.3433653 15.5055583,15.5292785 M3.15924032,1.66978979 C4.06075079,2.07491119 4.63969315,2.58603794 4.74525997,2.66410387 C4.69750432,2.43565833 4.51988293,1.3361606 4.41766641,0.653289028 C4.94298779,1.01074896 6.16203629,1.84071339 6.56335957,2.11024623 C6.72673756,1.61637651 7.29311168,0.00328697452 7.29311168,0.00328697452 C7.29311168,0.00328697452 8.31694509,1.62870272 8.49205145,1.89248353 C8.70570013,1.67307699 9.92893651,0.337738314 10.2456393,0 C10.2984227,0.768333369 10.370475,1.86700942 10.3889085,2.03218052 C10.45007,1.95082738 10.9184201,1.30657782 11.7034683,0.713276487 C11.3633088,1.37067394 11.2007684,2.27788262 11.1287162,3.0067723 C10.3562339,2.79558332 9.54102136,2.68218235 8.70150994,2.68218235 C7.08868095,2.68218235 5.57387829,3.09798636 4.26434394,3.82851941 C4.02639865,3.12428216 3.65356217,2.24829985 3.15924032,1.66978979" id="path56"></path>
                    </g>
                </g>
            </g>
        </g>
    </g>
</svg>