<?xml version="1.0" encoding="UTF-8"?>
<svg width="35px" height="35px" viewBox="0 0 35 35" version="1.1" xmlns="http://www.w3.org/2000/svg" xmlns:xlink="http://www.w3.org/1999/xlink">
    <title>Coin 3</title>
    <defs>
        <linearGradient x1="20.8792793%" y1="13.3315046%" x2="55.2980179%" y2="58.4043997%" id="linearGradient-1">
            <stop stop-color="#B78628" offset="0%"></stop>
            <stop stop-color="#C69320" offset="14.4240921%"></stop>
            <stop stop-color="#F5DEA3" offset="27.8663429%"></stop>
            <stop stop-color="#DBA514" offset="42.9713894%"></stop>
            <stop stop-color="#FFF0BD" offset="65.7252956%"></stop>
            <stop stop-color="#FCC201" offset="100%"></stop>
        </linearGradient>
    </defs>
    <g id="PC-version" stroke="none" stroke-width="1" fill="none" fill-rule="evenodd">
        <g id="Homepage" transform="translate(-1350.000000, -310.000000)" fill="url(#linearGradient-1)" fill-rule="nonzero">
            <g id="Group" transform="translate(1100.000000, 0.000000)">
                <g id="Infos" transform="translate(55.000000, 309.000000)">
                    <g id="Coin" transform="translate(151.000000, 0.000000)">
                        <g id="Coin-3" transform="translate(44.000000, 1.000000)">
                            <path d="M17.5,0 C27.148625,0 35,7.8505 35,17.5 C35,27.148625 27.148625,35 17.5,35 C7.8505,35 0,27.148625 0,17.5 C0,7.8505 7.8505,0 17.5,0 Z M17.5,1.75 C8.815625,1.75 1.75,8.815625 1.75,17.5 C1.75,26.184375 8.815625,33.25 17.5,33.25 C26.184375,33.25 33.25,26.184375 33.25,17.5 C33.25,8.815625 26.184375,1.75 17.5,1.75 Z M21.74725,30.534 C21.975625,30.459625 22.22325,30.5865 22.297625,30.81575 C22.372875,31.045875 22.248625,31.2935 22.0185,31.367 C20.568625,31.838625 19.05225,32.078375 17.51575,32.080125 L17.51575,32.080125 L17.4371416,32.0730146 C17.2331142,32.035662 17.07825,31.8557361 17.07825,31.642625 C17.07825,31.402875 17.27425,31.205125 17.51575,31.205125 C18.960375,31.203375 20.384,30.97675 21.74725,30.534 Z M8.848,28.69475 C8.988875,28.501375 9.263625,28.455875 9.45875,28.599375 C10.626875,29.44725 11.91225,30.1 13.279,30.54275 C13.509125,30.617125 13.635125,30.863875 13.56075,31.0905 C13.500375,31.275125 13.328875,31.39325 13.14425,31.39325 C13.099625,31.39325 13.054125,31.388875 13.0095,31.373125 C11.55525,30.90325 10.187625,30.207625 8.945125,29.30725 C8.75,29.1655 8.70625,28.8925 8.848,28.69475 Z M17.5,4.869375 C24.476375,4.869375 30.1315,10.5245 30.1315,17.5 C30.1315,24.476375 24.476375,30.1315 17.5,30.1315 C10.5245,30.1315 4.869375,24.476375 4.869375,17.5 C4.869375,10.5245 10.5245,4.869375 17.5,4.869375 Z M28.5915,25.55175 C28.73325,25.356625 29.00625,25.312 29.204875,25.45375 C29.39825,25.5955 29.442875,25.867625 29.299375,26.0645 C28.398125,27.304375 27.314875,28.389375 26.07675,29.2915 C25.998875,29.348375 25.90875,29.3755 25.8195,29.3755 C25.68475,29.3755 25.552625,29.3125 25.466,29.19525 C25.32425,29.000125 25.36625,28.72625 25.561375,28.583625 C26.725125,27.73575 27.7445,26.7155 28.5915,25.55175 Z M3.91825,21.4795 C4.151,21.40425 4.395125,21.529375 4.4695,21.7595 C4.91575,23.1245 5.57375,24.408125 6.423375,25.573625 C6.566,25.767875 6.523125,26.04175 6.328,26.184375 C6.251,26.243 6.16,26.26925 6.07075,26.26925 C5.936,26.26925 5.803,26.208 5.71725,26.089875 C4.811625,24.849125 4.1125,23.48325 3.63825,22.03075 C3.563,21.8015 3.689,21.553875 3.91825,21.4795 Z M18.8465193,11.6666667 C18.0150833,11.6666667 17.342461,11.7669036 16.8099683,11.9673774 C16.2774756,12.1678513 15.8664286,12.4412247 15.5581433,12.7692728 C15.5141026,12.8161368 15.472159,12.8639307 15.4322581,12.9126544 L15.4322581,12.9126544 L15.462551,12.0559881 L11.7398403,12.0559881 L11.6666667,14.1911429 L11.6746667,14.1906667 L11.6666667,14.4279533 L12.8318167,14.4279533 L12.561637,22.5676678 L12.6486667,22.5676667 L12.6362178,22.9569892 L15.114976,22.9569892 L15.1551657,21.5538133 C15.2281075,21.6582086 15.3093406,21.7586252 15.3993297,21.8543831 C15.7076149,22.1915436 16.1186619,22.4558046 16.6511546,22.6562785 C17.1743054,22.8567523 17.8562697,22.9569892 18.6877057,22.9569892 C19.5097997,22.9569892 20.191764,22.8567523 20.7242567,22.6562785 C21.2567494,22.4558046 21.6771384,22.1824312 21.9854236,21.8543831 C22.2937089,21.526335 22.4992324,21.1527246 22.6206781,20.733552 C22.7421238,20.3143794 22.7981756,19.8952069 22.7981756,19.4578094 L22.7981756,19.4578094 L22.9569892,15.1658465 C22.9569892,14.7375615 22.9009374,14.3092765 22.7794917,13.8901039 C22.658046,13.4800437 22.4525225,13.0973209 22.1442372,12.7692728 C21.835952,12.4321123 21.415563,12.1678513 20.8830703,11.9673774 C20.3412356,11.7669036 19.6686133,11.6666667 18.8465193,11.6666667 Z M31.642625,17.0345 C31.884125,17.0345 32.080125,17.2025 32.080125,17.444 L32.080125,17.444 L32.080125,17.5 C32.080125,19.0365 31.84125,20.55375 31.369625,22.00275 C31.308375,22.189125 31.136875,22.306375 30.95225,22.306375 C30.909375,22.306375 30.863875,22.301125 30.81925,22.285375 C30.59,22.210125 30.464,21.96425 30.5375,21.734125 C30.981125,20.370875 31.205125,18.9455 31.205125,17.5 C31.205125,17.257625 31.401125,17.0345 31.642625,17.0345 Z M18.3546533,14.1769889 C18.6588107,14.1769889 18.9108268,14.2024409 19.1020115,14.2703129 C19.2931961,14.3297009 19.4409297,14.423025 19.5452123,14.533317 C19.6408046,14.643609 19.7190165,14.7878371 19.7537773,14.9575171 C19.7972284,15.1271972 19.8146088,15.3138453 19.8146088,15.5174613 L19.8146088,15.5174613 L19.6668752,19.0977106 C19.6668752,19.3098106 19.6408046,19.4964587 19.6060438,19.6576548 C19.5712829,19.8188508 19.5017612,19.9461109 19.3974787,20.0564029 C19.2931961,20.1582109 19.1454626,20.243051 18.9542779,20.302439 C18.7630933,20.361827 18.5110771,20.387279 18.2069197,20.387279 C17.9027623,20.387279 17.6507462,20.361827 17.4595615,20.302439 C17.4570832,20.3016691 17.4546122,20.3008965 17.4521485,20.3001209 L17.4521485,20.3001209 L17.4078548,20.2597048 C17.305093,20.1503554 17.2210152,20.0045562 17.1836473,19.8314197 C17.1369375,19.6582832 17.1182535,19.4578094 17.1182535,19.2299982 L17.1182535,19.2299982 L17.2770671,15.3845453 C17.2770671,15.1658465 17.305093,14.9653727 17.342461,14.7831237 C17.3798289,14.6008748 17.4545647,14.4459632 17.5666684,14.3275014 C17.5882971,14.304646 17.6116645,14.2828082 17.6369131,14.261457 C17.8242292,14.2075633 18.0659531,14.1769889 18.3546533,14.1769889 Z M4.17025,12.74175 C4.400375,12.816125 4.526375,13.062875 4.452875,13.292125 C4.01625,14.646625 3.794875,16.062375 3.794875,17.5 C3.794875,17.740625 3.59975,17.9515 3.357375,17.9515 C3.115875,17.9515 2.919875,17.770375 2.919875,17.52975 L2.919875,17.5 C2.919875,15.971375 3.15525,14.4655 3.619875,13.024375 C3.69425,12.79425 3.941,12.67 4.17025,12.74175 Z M28.653625,8.794625 C28.846125,8.651125 29.120875,8.693125 29.264375,8.88825 C30.17175,10.1255 30.87525,11.489625 31.353,12.942125 C31.42825,13.171375 31.304,13.419 31.07475,13.49425 C31.02925,13.509125 30.984625,13.516125 30.93825,13.516125 C30.753625,13.516125 30.582125,13.398875 30.52175,13.215125 C30.072875,11.850125 29.413125,10.56825 28.560875,9.40625 C28.4165,9.211125 28.459375,8.938125 28.653625,8.794625 Z M8.89875,5.725125 C9.09475,5.5825 9.368625,5.6245 9.510375,5.819625 C9.653,6.01475 9.611,6.288625 9.415875,6.43125 C8.253,7.28175 7.23625,8.30375 6.391875,9.470125 C6.307,9.58825 6.173125,9.65125 6.0375,9.65125 C5.949125,9.65125 5.859,9.625 5.781125,9.56725 C5.585125,9.4255 5.541375,9.1525 5.683125,8.9565 C6.580875,7.716625 7.662375,6.629 8.89875,5.725125 Z M21.412125,3.898125 C21.487375,3.668875 21.732375,3.542875 21.9625,3.6155 C23.4185,4.08275 24.787,4.77575 26.03125,5.67525 C26.2255,5.816125 26.270125,6.09 26.128375,6.286 C26.0435,6.404125 25.909625,6.467125 25.774,6.467125 C25.685625,6.467125 25.596375,6.44 25.5185,6.384 C24.348625,5.53875 23.062375,4.88775 21.69475,4.4485 C21.464625,4.375 21.338625,4.12825 21.412125,3.898125 Z M17.457125,2.92075 L17.5361187,2.92780161 C17.7390803,2.96485648 17.8947225,3.14348611 17.8955029,3.357375 C17.896375,3.598875 17.6995,3.794875 17.458875,3.79575 C16.013375,3.79925 14.58975,4.027625 13.22825,4.473875 C13.18275,4.48875 13.136375,4.49575 13.09175,4.49575 C12.907125,4.49575 12.7365,4.3785 12.677,4.19475 C12.60175,3.964625 12.726875,3.717875 12.956125,3.642625 C14.405125,3.168375 15.91975,2.925125 17.457125,2.92075 L17.457125,2.92075 Z" id="Combined-Shape-Copy-2"></path>
                        </g>
                    </g>
                </g>
            </g>
        </g>
    </g>
</svg>