<svg xmlns="http://www.w3.org/2000/svg" width="31.55" height="33.085" viewBox="0 0 31.55 33.085">
  <g id="Date" transform="translate(-1313.45 -24.75)">
    <g id="Group_12698" data-name="Group 12698" transform="translate(10189 681.335)">
      <g id="Icon_feather-calendar" data-name="Icon feather-calendar" transform="translate(-8879.3 -658.835)">
        <path id="Path_15051" data-name="Path 15051" d="M7.5,6h21a3,3,0,0,1,3,3V30a3,3,0,0,1-3,3H7.5a3,3,0,0,1-3-3V9a3,3,0,0,1,3-3Z" fill="#fff" stroke="#d8d8d8" stroke-linecap="round" stroke-linejoin="round" stroke-width="1.5"/>
        <path id="Path_15052" data-name="Path 15052" d="M24,3V9" fill="#fff" stroke="#d8d8d8" stroke-linecap="round" stroke-linejoin="round" stroke-width="1.5"/>
        <path id="Path_15053" data-name="Path 15053" d="M12,3V9" fill="#fff" stroke="#d8d8d8" stroke-linecap="round" stroke-linejoin="round" stroke-width="1.5"/>
        <path id="Path_15054" data-name="Path 15054" d="M4.5,15h27" fill="#fff" stroke="#d8d8d8" stroke-linecap="round" stroke-linejoin="round" stroke-width="1.5"/>
      </g>
      <g id="Group_1" data-name="Group 1" transform="translate(-8874.512 -648)">
        <path id="Fill_23" data-name="Fill 23" d="M5.09,10.424h0l-.463-.466,1.182-1.19-.4-1.485-1.44-.393L2.908,7.955,3.36,9.611l-.631.175L2.281,8.148.647,7.7l.171-.636,1.611.439L3.522,6.4,3.144,5.014,1.632,4.6.463,5.778,0,5.312,1.213,4.091.777,2.5l.632-.175.453,1.659,1.4.38L4.345,3.27,3.961,1.855l-1.64-.45L2.494.768l1.637.45L5.341,0,5.8.466,4.594,1.684,4.978,3.1l1.457.4L7.509,2.414,7.078.82,7.71.646l.433,1.6,1.64.45-.172.636L7.973,2.883,6.9,3.965,7.286,5.4,8.778,5.8l1.182-1.19.464.466L9.217,6.3l.439,1.628L9.024,8.1l-.452-1.67L7.151,6.045,6.05,7.153l.384,1.412,1.677.456-.171.636L6.3,9.212,5.09,10.424ZM4.808,3.736,3.763,4.789l.4,1.474,1.449.394L6.662,5.6l-.4-1.466Z" transform="translate(8 8)" fill="#d8d8d8"/>
        <path id="Fill_112" data-name="Fill 112" d="M5.212,10.424h0a5.212,5.212,0,1,1,5.212-5.212A5.212,5.212,0,0,1,5.212,10.424Zm0-9.773A4.561,4.561,0,1,0,8.438,1.987,4.561,4.561,0,0,0,5.212.651Z" transform="translate(8 8)" fill="#d8d8d8" stroke="#d8d8d8" stroke-width="0.5"/>
      </g>
      <g id="Group_12699" data-name="Group 12699">
        <rect id="Rectangle_2840" data-name="Rectangle 2840" width="1" height="1" transform="translate(-8854.912 -630)" fill="#d8d8d8"/>
        <rect id="Rectangle_2842" data-name="Rectangle 2842" width="1" height="1" transform="translate(-8853.324 -630)" fill="#d8d8d8"/>
        <rect id="Rectangle_2841" data-name="Rectangle 2841" width="1" height="1" transform="translate(-8856.5 -630)" fill="#d8d8d8"/>
        <g id="Group_12698-2" data-name="Group 12698" transform="translate(-9484 8220) rotate(90)">
          <rect id="Rectangle_2843" data-name="Rectangle 2843" width="1" height="1" transform="translate(-8853 -632) rotate(180)" fill="#d8d8d8"/>
          <rect id="Rectangle_2844" data-name="Rectangle 2844" width="1" height="1" transform="translate(-8851.412 -632) rotate(180)" fill="#d8d8d8"/>
          <rect id="Rectangle_2845" data-name="Rectangle 2845" width="1" height="1" transform="translate(-8854.588 -632) rotate(180)" fill="#d8d8d8"/>
        </g>
      </g>
    </g>
    <g id="Icon_ionic-ios-done-all" data-name="Icon ionic-ios-done-all" transform="translate(1339.204 21.5)">
      <g id="Ellipse_149" data-name="Ellipse 149" transform="translate(-2.204 28.335)" fill="#fff" stroke="#d8d8d8" stroke-width="1">
        <circle cx="4" cy="4" r="4" stroke="none"/>
        <circle cx="4" cy="4" r="3.5" fill="none"/>
      </g>
      <path id="Path_15055" data-name="Path 15055" d="M16.126,11.618l-.326-.345a.071.071,0,0,0-.053-.023h0a.071.071,0,0,0-.053.023L13.428,13.62l-.824-.849a.072.072,0,0,0-.105,0l-.331.34a.077.077,0,0,0,0,.109l1.039,1.069a.32.32,0,0,0,.217.109.341.341,0,0,0,.215-.105l0,0,2.483-2.567A.077.077,0,0,0,16.126,11.618Z" transform="translate(-12.35 19.585)" fill="#d8d8d8" stroke="#d8d8d8" stroke-width="0.4"/>
    </g>
  </g>
</svg>
