<svg id="download" xmlns="http://www.w3.org/2000/svg" width="37.583" height="18.333" viewBox="0 0 37.583 18.333">
  <g id="Fill_920" data-name="Fill 920" transform="translate(0)">
    <path id="Fill_919" data-name="Fill 919" d="M29.754,0H17.227A1.549,1.549,0,0,0,15.66,1.527a1.549,1.549,0,0,0,1.567,1.527H29.754a1.548,1.548,0,0,0,1.565-1.527A1.548,1.548,0,0,0,29.754,0ZM6.264,0A1.548,1.548,0,0,0,4.7,1.527V13.12L2.674,11.134a1.6,1.6,0,0,0-2.214,0,1.508,1.508,0,0,0,0,2.169l4.7,4.582a1.6,1.6,0,0,0,2.214,0l4.7-4.582a1.511,1.511,0,0,0,0-2.169,1.6,1.6,0,0,0-2.214,0L7.831,13.12V1.527A1.549,1.549,0,0,0,6.264,0Zm23.49,7.636H17.227a1.528,1.528,0,1,0,0,3.056H29.754a1.528,1.528,0,1,0,0-3.056Zm6.264,7.638H17.227a1.528,1.528,0,1,0,0,3.054H36.018a1.527,1.527,0,1,0,0-3.054Z" transform="translate(0)"/>
  </g>
</svg>
