<svg id="emoji" xmlns="http://www.w3.org/2000/svg" width="23.333" height="23.333" viewBox="0 0 23.333 23.333">
  <g id="emoji_happy_circle_550_2" data-name="emoji_happy_circle [#550] 2">
    <path id="emoji_happy_circle_550_" data-name="emoji_happy_circle [#550]" d="M11.667,23.333A11.667,11.667,0,1,1,23.333,11.667,11.68,11.68,0,0,1,11.667,23.333Zm0-21A9.333,9.333,0,1,0,21,11.667,9.344,9.344,0,0,0,11.667,2.333Zm.073,16.928a5.738,5.738,0,0,1-5.795-4.854.838.838,0,0,1,.169-.706,1.277,1.277,0,0,1,.991-.383h9.123a1.229,1.229,0,0,1,.953.411.964.964,0,0,1,.206.8,5.6,5.6,0,0,1-2.074,3.553A5.875,5.875,0,0,1,11.74,19.262Zm4.594-7.595a2.333,2.333,0,1,1,2.333-2.333A2.336,2.336,0,0,1,16.334,11.667ZM7,11.667A2.333,2.333,0,1,1,9.333,9.333,2.336,2.336,0,0,1,7,11.667Z" fill="#fff"/>
  </g>
</svg>
