<svg id="icon_3" data-name="icon 3" xmlns="http://www.w3.org/2000/svg" width="20" height="20" viewBox="0 0 20 20">
  <g id="Icon">
    <circle id="Oval" cx="10" cy="10" r="10" fill="#ff9002"/>
  </g>
  <g id="Group_35" data-name="Group 35" transform="translate(4 3)">
    <g id="Group_38" data-name="Group 38">
      <rect id="Rectangle" width="12" height="13" fill="none"/>
      <g id="profile_plus_round_1343_3" data-name="profile_plus_round [#1343] 3" transform="translate(1.2 1.238)">
        <path id="profile_plus_round_1343_" data-name="profile_plus_round [#1343]" d="M4.9,11.143a.5.5,0,0,1-.49-.507V10.13h-.59a.507.507,0,0,1,0-1.013h.59V8.61a.49.49,0,1,1,.98,0v.507h.39a.507.507,0,0,1,0,1.013H5.39c0,.04,0,.08,0,.12a1.133,1.133,0,0,1-.153.777A.452.452,0,0,1,4.9,11.143ZM8.614,10.13H7.74a.507.507,0,0,1,0-1.013h.21a.5.5,0,0,0,.408-.22.486.486,0,0,0,.054-.458A3.772,3.772,0,0,0,4.8,6.078,3.77,3.77,0,0,0,1.189,8.439a.485.485,0,0,0,.053.457.5.5,0,0,0,.408.22H1.86a.507.507,0,0,1,0,1.013H.986a1,1,0,0,1-.965-1.2A4.739,4.739,0,0,1,2.958,5.405a3.064,3.064,0,0,1-1.1-2.366A2.994,2.994,0,0,1,4.8,0a2.965,2.965,0,0,1,.353.021A3.01,3.01,0,0,1,7.706,2.568,3.079,3.079,0,0,1,6.641,5.405,4.741,4.741,0,0,1,9.579,8.932a1,1,0,0,1-.965,1.2ZM4.8,1.013A2,2,0,0,0,2.84,3.039,2,2,0,0,0,4.8,5.065,2,2,0,0,0,6.76,3.039,2,2,0,0,0,4.8,1.013Z" transform="translate(0 0)" fill="#fff"/>
      </g>
    </g>
  </g>
</svg>
