<svg id="kora" xmlns="http://www.w3.org/2000/svg" width="23.333" height="23.333" viewBox="0 0 23.333 23.333">
  <g id="Group" transform="translate(0)">
    <path id="Fill_23" data-name="Fill 23" d="M11.394,23.333h0l-1.037-1.043L13,19.627,12.1,16.3l-3.223-.877L6.513,17.807l1.012,3.705L6.111,21.9l-1-3.665-3.656-.994.381-1.426L5.44,16.8l2.449-2.465-.849-3.111L3.653,10.3,1.037,12.934,0,11.89,2.714,9.157,1.74,5.59,3.154,5.2,4.168,8.912l3.13.851L9.725,7.32,8.867,4.152,5.2,3.145,5.583,1.72,9.247,2.726,11.955,0l1.037,1.044L10.284,3.771l.858,3.166,3.261.9,2.407-2.423L15.84,1.834l1.415-.388.97,3.581L21.9,6.033,21.51,7.458,17.847,6.452,15.439,8.876l.867,3.2,3.343.91L22.3,10.325l1.037,1.045L20.625,14.1l.987,3.645-1.414.389-1.013-3.737L16,13.527l-2.463,2.479.857,3.162,3.753,1.021-.383,1.425-3.673-1-2.7,2.718Zm-.631-14.97L8.423,10.719l.9,3.3,3.243.882,2.345-2.36-.888-3.281-3.26-.895Z" transform="translate(0 0)" fill="#fff"/>
    <path id="Fill_112" data-name="Fill 112" d="M11.668,23.333h0A11.669,11.669,0,0,1,.4,8.647,11.669,11.669,0,1,1,11.668,23.333Zm0-21.875a10.208,10.208,0,1,0,7.22,2.99A10.192,10.192,0,0,0,11.665,1.458Z" transform="translate(0)" fill="#fff"/>
  </g>
</svg>
