<svg xmlns="http://www.w3.org/2000/svg" width="18" height="18" viewBox="0 0 18 18">
    <path fill="#FFF" fill-rule="evenodd" d="M8.962 0C3.6 0-.662 4.614.085 10.013c.476 3.44 3.085 6.328 6.503 7.238 1.272.34 2.586.412 3.906.184 1.101-.19 2.232-.105 3.31.165l1.312.327c1.7.426 3.244-1.087 2.81-2.754l-.25-.962c-.272-1.044-.33-2.146-.05-3.188.347-1.283.406-2.68.094-4.129C16.893 3.074 13.385 0 8.962 0m0 1.8c3.557 0 6.342 2.44 6.998 5.475.24 1.112.216 2.215-.07 3.279-1.216 4.492 2.336 6.296-1.649 5.299-1.325-.331-2.707-.425-4.054-.192-1.04.18-2.093.129-3.136-.148-2.724-.727-4.808-3.036-5.183-5.747C1.264 5.397 4.742 1.8 8.962 1.8"/>
</svg>
