<svg id="picture" xmlns="http://www.w3.org/2000/svg" width="23.333" height="19.445" viewBox="0 0 23.333 19.445">
  <g id="Fill_1008" data-name="Fill 1008">
    <path id="Fill_1007" data-name="Fill 1007" d="M2.917,19.445h17.5a2.92,2.92,0,0,0,2.917-2.917V2.917A2.92,2.92,0,0,0,20.416,0H2.917A2.92,2.92,0,0,0,0,2.917V16.528A2.92,2.92,0,0,0,2.917,19.445ZM17.5,7.208h0L21.389,11.1v5.431a.973.973,0,0,1-.972.972H2.917a.978.978,0,0,1-.911-.631L7.777,11.1l2.917,2.916L17.5,7.208ZM7.777,9.153A1.931,1.931,0,0,0,6.4,9.722L1.945,14.181V2.917a.973.973,0,0,1,.972-.972h17.5a.973.973,0,0,1,.972.972V8.347L18.875,5.834a1.943,1.943,0,0,0-2.75,0l-5.431,5.431L9.152,9.722A1.931,1.931,0,0,0,7.777,9.153ZM5.833,7.777A1.944,1.944,0,1,0,3.888,5.834,1.946,1.946,0,0,0,5.833,7.777Z" fill="#fff"/>
  </g>
</svg>
