<svg xmlns="http://www.w3.org/2000/svg" xmlns:xlink="http://www.w3.org/1999/xlink" width="14" height="20" viewBox="0 0 14 20">
  <defs>
    <linearGradient id="linear-gradient" y1="0.086" x2="0.91" y2="0.884" gradientUnits="objectBoundingBox">
      <stop offset="0" stop-color="#ffa170"/>
      <stop offset="1" stop-color="#ff657e"/>
    </linearGradient>
  </defs>
  <g id="popular" transform="translate(0 0)">
    <path id="Shape" d="M0,13.138A12.861,12.861,0,0,1,1.043,8.312,22.615,22.615,0,0,1,3.3,4.183,28.867,28.867,0,0,1,6.577.172.607.607,0,0,1,7.229.045.585.585,0,0,1,7.6.586V5.5a1.323,1.323,0,0,0,2.646,0,.588.588,0,0,1,.437-.564.6.6,0,0,1,.671.262A15.441,15.441,0,0,1,14,13.138,6.94,6.94,0,0,1,7,20,6.94,6.94,0,0,1,0,13.138Z" fill="url(#linear-gradient)"/>
    <path id="Path" d="M7.428,0H4.978a.576.576,0,0,0,0,1.151h1.07L3.6,3.61,2.276,2.274a.569.569,0,0,0-.809,0L.168,3.581a.578.578,0,0,0,0,.814.569.569,0,0,0,.809,0l.9-.9L3.2,4.831a.569.569,0,0,0,.809,0L6.856,1.965V3.042A.572.572,0,1,0,8,3.042V.576A.574.574,0,0,0,7.428,0Z" transform="translate(3 10)" fill="url(#linear-gradient)"/>
  </g>
</svg>
