<svg id="profile" xmlns="http://www.w3.org/2000/svg" width="21.21" height="23.333" viewBox="0 0 21.21 23.333">
  <g id="profile_plus_round_1343_2" data-name="profile_plus_round [#1343] 2" transform="translate(0 0)">
    <path id="profile_plus_round_1343_" data-name="profile_plus_round [#1343]" d="M10.826,23.333a1.073,1.073,0,0,1-1.083-1.061V21.212H8.44a1.061,1.061,0,1,1,0-2.121h1.3V18.031a1.083,1.083,0,0,1,2.165,0v1.061h.862a1.061,1.061,0,1,1,0,2.121h-.862c0,.084,0,.168,0,.251a2.326,2.326,0,0,1-.322,1.611A1.02,1.02,0,0,1,10.826,23.333Zm8.207-2.121H17.1a1.061,1.061,0,1,1,0-2.121h.464a1.1,1.1,0,0,0,.922-.491.974.974,0,0,0,.1-.928,8.352,8.352,0,0,0-7.979-4.944,8.353,8.353,0,0,0-7.979,4.944.974.974,0,0,0,.1.928,1.1,1.1,0,0,0,.922.491h.464a1.061,1.061,0,1,1,0,2.121H2.178a2.2,2.2,0,0,1-1.727-.823,1.993,1.993,0,0,1-.4-1.684,10.073,10.073,0,0,1,6.49-7.385A6.288,6.288,0,0,1,4.109,6.364,6.438,6.438,0,0,1,10.6,0a6.906,6.906,0,0,1,.779.044,6.489,6.489,0,0,1,5.642,5.333,6.274,6.274,0,0,1-2.351,5.943,10.074,10.074,0,0,1,6.49,7.385,1.991,1.991,0,0,1-.4,1.683A2.2,2.2,0,0,1,19.032,21.212ZM10.605,2.121a4.292,4.292,0,0,0-4.33,4.243,4.331,4.331,0,0,0,8.66,0A4.292,4.292,0,0,0,10.605,2.121Z" transform="translate(0)" fill="#fff"/>
  </g>
</svg>
